<?xml version="1.0" standalone="no"?>
<!DOCTYPE svg PUBLIC "-//W3C//DTD SVG 20010904//EN"
 "http://www.w3.org/TR/2001/REC-SVG-20010904/DTD/svg10.dtd">
<svg version="1.0" xmlns="http://www.w3.org/2000/svg"
 width="64.000000pt" height="64.000000pt" viewBox="0 0 64.000000 64.000000"
 preserveAspectRatio="xMidYMid meet">

<g transform="translate(0.000000,64.000000) scale(0.100000,-0.100000)"
fill="#83a598" stroke="none">
<path d="M0 320 l0 -320 320 0 320 0 0 320 0 320 -320 0 -320 0 0 -320z m410
0 l0 -280 -185 0 -185 0 0 280 0 280 185 0 185 0 0 -280z m190 205 l0 -75 -75
0 -75 0 0 75 0 75 75 0 75 0 0 -75z m0 -205 l0 -90 -75 0 -75 0 0 90 0 90 75
0 75 0 0 -90z m0 -205 l0 -75 -75 0 -75 0 0 75 0 75 75 0 75 0 0 -75z"/>
</g>
</svg>
